HIERARCHY
ROOT Hips
{
	OFFSET 0.000000 0.000000 0.000000
	CHANNELS 6 Xposition Yposition Zposition Xrotation Yrotation Zrotation
	JOINT LeftUpLeg_virtual
	{
		OFFSET 0.000000 0.000000 0.000000
		CHANNELS 3 Xrotation Yrotation Zrotation
		JOINT LeftUpLeg
		{
			OFFSET 10.205400 -3.823500 0.155100
			CHANNELS 3 Xrotation Yrotation Zrotation
			JOINT LeftLeg
			{
				OFFSET 0.708757 -12.982077 0.567790
				CHANNELS 3 Xrotation Yrotation Zrotation
				JOINT LeftFoot
				{
					OFFSET -0.708756 -10.717838 -2.184338
					CHANNELS 3 Xrotation Yrotation Zrotation
					JOINT LeftToeBase
					{
						OFFSET 0.108149 -7.191104 7.560241
						CHANNELS 3 Xrotation Yrotation Zrotation
						JOINT LeftToe_End
						{
							OFFSET 0.070230 0.081724 4.490308
							CHANNELS 3 Xrotation Yrotation Zrotation
							End Site
							{
								OFFSET 0 0 0
							}
						}
					}
				}
			}
		}
	}
	JOINT RightUpLeg_virtual
	{
		OFFSET 0.000000 0.000000 0.000000
		CHANNELS 3 Xrotation Yrotation Zrotation
		JOINT RightUpLeg
		{
			OFFSET -10.205400 -3.823500 0.005500
			CHANNELS 3 Xrotation Yrotation Zrotation
			JOINT RightLeg
			{
				OFFSET -0.708756 -12.982134 0.610632
				CHANNELS 3 Xrotation Yrotation Zrotation
				JOINT RightFoot
				{
					OFFSET 0.708754 -10.717769 -1.945823
					CHANNELS 3 Xrotation Yrotation Zrotation
					JOINT RightToeBase
					{
						OFFSET -0.108140 -7.191069 7.372968
						CHANNELS 3 Xrotation Yrotation Zrotation
						JOINT RightToe_End
						{
							OFFSET -0.070227 0.081735 4.479403
							CHANNELS 3 Xrotation Yrotation Zrotation
							End Site
							{
								OFFSET 0 0 0
							}
						}
					}
				}
			}
		}
	}
	JOINT Spine_virtual
	{
		OFFSET 0.000000 0.000000 0.000000
		CHANNELS 3 Xrotation Yrotation Zrotation
		JOINT Spine
		{
			OFFSET 0.000000 6.876099 0.125700
			CHANNELS 3 Xrotation Yrotation Zrotation
			JOINT Spine1
			{
				OFFSET 0.000000 5.730043 0.104720
				CHANNELS 3 Xrotation Yrotation Zrotation
				JOINT Spine1_split
				{
					OFFSET 0.000000 5.730043 0.104720
					CHANNELS 3 Xrotation Yrotation Zrotation
					JOINT Spine2
					{
						OFFSET 0.000000 5.730043 0.104720
						CHANNELS 3 Xrotation Yrotation Zrotation
						JOINT Neck_virtual
						{
							OFFSET 0.000000 0.000000 0.000000
							CHANNELS 3 Xrotation Yrotation Zrotation
							JOINT Neck
							{
								OFFSET 0.000000 10.314075 0.188496
								CHANNELS 3 Xrotation Yrotation Zrotation
								JOINT Head
								{
									OFFSET 0.000000 7.643700 -2.377400
									CHANNELS 3 Xrotation Yrotation Zrotation
									JOINT HeadTop_End
									{
										OFFSET 0.000000 43.788605 -13.619600
										CHANNELS 3 Xrotation Yrotation Zrotation
										End Site
										{
											OFFSET 0 0 0
										}
									}
								}
							}
						}
						JOINT LeftShoulder_virtual
						{
							OFFSET 0.000000 0.000000 0.000000
							CHANNELS 3 Xrotation Yrotation Zrotation
							JOINT LeftShoulder
							{
								OFFSET 2.196100 4.412489 0.087492
								CHANNELS 3 Xrotation Yrotation Zrotation
								JOINT LeftShoulder_split
								{
									OFFSET 2.196100 4.412489 0.087492
									CHANNELS 3 Xrotation Yrotation Zrotation
									JOINT LeftArm
									{
										OFFSET 8.771219 -2.981674 -0.026999
										CHANNELS 3 Xrotation Yrotation Zrotation
										JOINT LeftForeArm
										{
											OFFSET 8.512804 0.000000 -0.000000
											CHANNELS 3 Xrotation Yrotation Zrotation
											JOINT LeftHand
											{
												OFFSET 18.484802 0.000000 -0.000000
												CHANNELS 3 Xrotation Yrotation Zrotation
												End Site
												{
													OFFSET 0 0 0
												}
											}
										}
									}
								}
							}
						}
						JOINT RightShoulder_virtual
						{
							OFFSET 0.000000 0.000000 0.000000
							CHANNELS 3 Xrotation Yrotation Zrotation
							JOINT RightShoulder
							{
								OFFSET -2.196100 4.412496 0.070690
								CHANNELS 3 Xrotation Yrotation Zrotation
								JOINT RightShoulder_split
								{
									OFFSET -2.196100 4.412496 0.070690
									CHANNELS 3 Xrotation Yrotation Zrotation
									JOINT RightArm
									{
										OFFSET -8.771282 -2.981682 -0.094208
										CHANNELS 3 Xrotation Yrotation Zrotation
										JOINT RightForeArm
										{
											OFFSET -8.494598 0.000000 0.000000
											CHANNELS 3 Xrotation Yrotation Zrotation
											JOINT RightHand
											{
												OFFSET -18.483803 0.000000 0.000001
												CHANNELS 3 Xrotation Yrotation Zrotation
												End Site
												{
													OFFSET 0 0 0
												}
											}
										}
									}
								}
							}
						}
					}
				}
			}
		}
	}
}
MOTION
Frames: 10
Frame Time: 0.03333333
0.340974 28.850853 1.049728 0.000000 0.000000 0.000000 8.496054 -57.173844 9.486340 -36.174745 6.024042 26.868163 41.356116 -8.644182 -5.348485 -12.285517 -2.668203 -14.830830 1.897211 0.622674 -0.760388 0.000000 0.000000 0.000000 8.993380 -58.004917 10.063565 -31.252944 -7.772689 -30.110568 46.844695 6.670706 -5.609813 -23.216701 -4.119292 23.778248 5.838600 -1.298148 -3.168237 0.000000 0.000000 0.000000 10.539143 -53.847145 10.651925 9.185792 -2.193530 -1.249890 8.490081 0.553372 -5.872456 -0.530791 -4.338890 0.918222 0.000000 0.000000 0.000000 8.399230 0.988259 -4.750864 -15.378495 27.107996 6.243252 -3.446061 35.799477 -6.550328 0.000000 0.000000 0.000000 8.352218 1.155137 -5.546825 -5.809266 -10.258438 -1.545151 -5.731020 0.928271 -4.160819 -19.092836 -1.527303 -33.127370 3.249927 -35.165202 8.102803 0.000000 0.000000 0.000000 8.880970 1.148559 -5.387064 -2.694134 11.958920 -3.654621 1.893432 -3.932751 8.601198 -43.826592 -19.791957 33.779674 -152.812983 66.985304 150.731183 0.000000 0.000000 0.000000 
0.458063 28.826405 0.779415 0.000000 0.000000 0.000000 8.814994 -57.146670 9.974223 -35.844129 6.172386 26.294307 40.817794 -7.866835 -5.714663 -12.730195 -2.436500 -14.168947 2.008449 0.594741 -1.078383 0.000000 0.000000 0.000000 9.339924 -58.383207 10.626912 -31.613114 -8.007686 -30.465338 46.954132 6.834857 -5.524445 -22.745865 -4.006246 23.402055 5.239805 -1.560846 -2.712184 0.000000 0.000000 0.000000 10.622092 -53.615841 10.894828 9.160150 -1.982623 -1.202807 8.375275 0.537181 -5.850037 -0.452999 -4.049890 1.361593 0.000000 0.000000 0.000000 8.464137 0.918340 -4.641035 -15.284708 27.591615 6.310296 -2.866941 35.301539 -6.529399 0.000000 0.000000 0.000000 8.406877 1.114091 -5.477177 -5.798435 -10.326484 -1.872257 -6.691642 0.475065 -4.785746 -18.587158 -1.436769 -33.810615 3.202824 -36.669646 7.779741 0.000000 0.000000 0.000000 8.756039 1.043381 -5.166873 -2.081229 12.623439 -3.293775 1.398822 -4.202544 6.918224 -43.819277 -22.188687 32.981730 -150.417035 68.284516 148.402812 0.000000 0.000000 0.000000 
0.558449 28.818832 0.473898 0.000000 0.000000 0.000000 8.927759 -57.614258 10.592598 -35.127584 6.898436 25.833976 40.167301 -6.842762 -6.262862 -13.132338 -2.145409 -14.216174 2.112580 0.533085 -1.229443 0.000000 0.000000 0.000000 9.321282 -59.087789 11.237388 -32.221844 -8.344301 -31.168619 46.941756 7.651255 -5.357046 -22.221599 -3.679959 23.247317 4.837591 -1.700058 -2.503761 0.000000 0.000000 0.000000 10.125727 -53.712573 10.907962 9.404672 -1.659097 -1.172112 8.493511 0.586709 -5.750959 -0.122297 -3.368167 1.434834 0.000000 0.000000 0.000000 8.583151 0.980096 -4.548229 -16.081810 27.803472 7.350940 -1.761215 34.670303 -6.732966 0.000000 0.000000 0.000000 8.576508 1.118569 -5.340499 -5.825792 -10.697220 -2.265106 -7.312147 -0.550319 -5.262035 -18.685540 0.912008 -34.884949 3.533311 -38.743080 6.778224 0.000000 0.000000 0.000000 8.695119 1.014541 -4.893434 -1.211074 13.051393 -2.663238 0.430842 -3.475028 5.433318 -44.372812 -23.806339 30.443027 -142.932377 69.426571 141.512873 0.000000 0.000000 0.000000 
0.604185 28.847574 0.285362 0.000000 0.000000 0.000000 8.920758 -58.675539 11.363594 -34.050286 8.209472 25.481689 39.712704 -5.621527 -6.903888 -13.597331 -1.733111 -15.006750 2.497084 0.454590 -1.216591 0.000000 0.000000 0.000000 9.092306 -60.234953 11.894740 -32.998775 -8.535374 -32.121864 46.806276 8.978495 -5.084066 -21.589349 -3.081595 23.384568 4.502063 -1.710282 -2.547908 0.000000 0.000000 0.000000 9.310024 -54.404933 10.858128 9.864589 -1.239344 -1.143418 8.819787 0.722653 -5.540500 0.170201 -2.634088 1.238329 0.000000 0.000000 0.000000 8.757769 1.171120 -4.421983 -17.410229 27.709734 8.907522 -0.069766 34.097732 -7.309698 0.000000 0.000000 0.000000 8.836889 1.202303 -5.097139 -5.924466 -11.386792 -2.904312 -7.800153 -1.804286 -5.397061 -18.792960 4.989449 -35.957329 4.246637 -41.040633 5.283572 0.000000 0.000000 0.000000 8.778442 1.084500 -4.585247 -0.150468 13.398577 -1.924110 -0.772302 -2.491582 4.271470 -45.150846 -24.004211 26.260308 -130.982592 69.689731 130.620032 0.000000 0.000000 0.000000 
0.593384 28.888775 0.280926 0.000000 0.000000 0.000000 8.908570 -60.595581 12.334246 -32.670560 9.926788 25.202000 39.723001 -4.190338 -7.578013 -14.380588 -1.040454 -16.276407 3.254919 0.390937 -1.096821 0.000000 0.000000 0.000000 8.721332 -62.048601 12.589739 -33.938728 -8.310417 -33.039391 46.376158 10.633890 -4.767866 -20.765887 -2.233325 23.761547 3.707536 -1.594561 -2.764573 0.000000 0.000000 0.000000 8.196540 -55.939219 10.824444 10.423136 -0.751150 -1.072933 9.295484 0.948899 -5.132564 0.444429 -1.997497 1.011145 0.000000 0.000000 0.000000 9.013524 1.461218 -4.174618 -18.640093 27.433887 10.524226 2.223661 33.819169 -8.478643 0.000000 0.000000 0.000000 9.245501 1.368607 -4.655682 -6.142372 -12.413023 -3.911301 -7.996154 -2.567120 -5.506188 -18.487013 9.658540 -36.638009 5.606242 -43.587665 3.676060 0.000000 0.000000 0.000000 9.054770 1.239788 -4.189090 0.995604 13.761486 -1.363176 -1.749906 -2.058015 3.215072 -45.558830 -22.229988 20.755101 -116.411354 68.603212 117.410569 0.000000 0.000000 0.000000 
0.541646 28.931419 0.489485 0.000000 0.000000 0.000000 8.956943 -63.348966 13.455207 -30.969123 11.800625 24.954871 40.259802 -2.547316 -8.275623 -15.830242 -0.017458 -17.571703 3.938297 0.380745 -0.854052 0.000000 0.000000 0.000000 8.465731 -64.491602 13.404532 -35.009381 -7.447983 -33.636185 45.709221 12.388513 -4.531710 -19.936528 -1.267714 24.169413 2.355573 -1.408763 -2.941913 0.000000 0.000000 0.000000 6.851644 -58.423389 10.858070 10.921385 -0.242164 -0.898970 9.869136 1.237194 -4.476234 0.526907 -1.422243 0.948307 0.000000 0.000000 0.000000 9.339847 1.799734 -3.725184 -19.198868 27.258214 11.760677 5.036419 33.911094 -10.370571 0.000000 0.000000 0.000000 9.801177 1.603404 -3.972219 -6.512614 -13.733365 -5.320748 -7.686230 -2.885093 -5.519804 -17.276306 13.823417 -36.628986 8.106277 -46.525445 2.692446 0.000000 0.000000 0.000000 9.543634 1.435839 -3.664964 2.221658 14.339193 -1.256568 -2.718405 -2.771160 2.443654 -44.661265 -18.537900 14.491520 -100.244747 66.188256 102.789853 0.000000 0.000000 0.000000 
0.496473 28.941425 0.848652 0.000000 0.000000 0.000000 9.251297 -66.776751 14.826391 -29.183216 13.462033 24.738351 41.519381 -0.824016 -9.020175 -17.876699 1.230113 -18.415191 4.209587 0.434851 -0.523207 0.000000 0.000000 0.000000 8.451855 -67.369339 14.364668 -36.162399 -5.849339 -33.730281 45.301701 14.066371 -4.426780 -19.238782 -0.332818 24.131395 1.109227 -1.217446 -2.892037 0.000000 0.000000 0.000000 5.471786 -61.636419 11.063020 11.231947 0.241239 -0.542194 10.474373 1.509840 -3.551364 0.436346 -0.968621 1.008613 0.000000 0.000000 0.000000 9.739746 2.084021 -3.017041 -18.784019 27.327015 12.472127 8.077528 34.352949 -12.975774 0.000000 0.000000 0.000000 10.465289 1.823283 -3.058557 -6.953181 -15.342248 -6.934371 -6.467949 -2.706786 -5.247711 -15.141105 16.904467 -35.840724 12.538217 -49.611069 3.288629 0.000000 0.000000 0.000000 10.209738 1.606564 -2.933410 3.513538 15.131352 -1.944111 -3.219867 -4.268821 2.073434 -42.156744 -13.324123 8.318717 -84.125965 62.312956 88.110943 0.000000 0.000000 0.000000 
0.441139 28.860922 1.266146 0.000000 0.000000 0.000000 9.839725 -70.538731 16.472488 -27.660719 14.651259 24.604867 43.659542 0.819104 -9.866762 -20.346941 2.434478 -18.286312 3.983562 0.524468 -0.203496 0.000000 0.000000 0.000000 8.814404 -70.461557 15.607122 -37.479044 -3.617669 -33.310576 45.452091 15.550268 -4.549213 -18.655673 0.412956 23.621658 0.297636 -1.058986 -2.550280 0.000000 0.000000 0.000000 4.305280 -65.274977 11.497682 11.327876 0.635807 0.033774 11.065467 1.658201 -2.397277 0.382220 -0.970838 1.064408 0.000000 0.000000 0.000000 10.221510 2.194104 -2.021302 -17.318744 27.755829 12.678655 11.211714 35.188704 -16.244061 0.000000 0.000000 0.000000 11.186773 1.904790 -1.980799 -7.414537 -17.107366 -8.319407 -4.296525 -1.919349 -4.513907 -12.281981 18.913885 -34.306077 19.922128 -52.731956 6.668542 0.000000 0.000000 0.000000 10.977500 1.669045 -1.980011 4.886140 16.039029 -3.585196 -3.563523 -5.597945 2.053525 -38.835578 -7.380653 3.031898 -70.112329 56.922441 75.314905 0.000000 0.000000 0.000000 
0.394793 28.672009 1.672338 0.000000 0.000000 0.000000 10.808984 -73.942084 18.375724 -26.741224 15.169053 24.590501 46.561147 2.151304 -10.805824 -22.869524 3.348713 -17.147847 3.485600 0.623288 -0.031600 0.000000 0.000000 0.000000 9.941361 -73.406024 17.419878 -39.017445 -1.072607 -32.509091 46.296095 16.797542 -4.986898 -18.213116 0.850605 23.353038 -0.489235 -1.004658 -2.088496 0.000000 0.000000 0.000000 3.893350 -68.920037 12.424342 11.256144 0.875653 0.822983 11.578626 1.536941 -1.131455 0.130880 -1.337937 1.288226 0.000000 0.000000 0.000000 10.735607 2.040246 -0.821591 -15.082029 28.508612 12.673338 14.300807 36.400851 -19.863442 0.000000 0.000000 0.000000 11.877684 1.730906 -0.842766 -7.735480 -18.814483 -9.045385 -2.162357 -0.756974 -3.884118 -9.204886 20.244826 -31.978672 31.037435 -55.248581 13.829825 0.000000 0.000000 0.000000 11.693445 1.492567 -0.857195 6.334166 16.802656 -6.143998 -4.024166 -6.195063 2.570016 -35.926887 -1.431558 -0.659309 -59.390988 50.623323 65.408016 0.000000 0.000000 0.000000 
0.372072 28.396627 2.054785 0.000000 0.000000 0.000000 12.613636 -76.654667 20.907412 -26.737518 14.929516 24.698705 50.073322 2.939285 -11.780282 -24.955959 3.946787 -15.387306 2.998735 0.737857 -0.130061 0.000000 0.000000 0.000000 12.133442 -75.880383 20.108256 -40.556243 1.349002 -31.538856 47.601463 17.844648 -5.671966 -17.879565 0.953773 24.035195 -1.579611 -1.052408 -1.772221 0.000000 0.000000 0.000000 4.367088 -72.083043 13.922570 11.094072 0.913668 1.745478 11.934442 1.044606 0.083659 -0.128892 -1.855363 1.477905 0.000000 0.000000 0.000000 11.221547 1.552972 0.405758 -12.478849 29.394730 12.801952 17.051074 37.896908 -23.574878 0.000000 0.000000 0.000000 12.468287 1.241053 0.247693 -7.737494 -20.241223 -8.737975 0.001312 0.548552 -3.426042 -6.285334 21.154488 -28.965278 45.927380 -56.455065 24.895232 0.000000 0.000000 0.000000 12.252022 0.984772 0.317647 7.718184 16.940951 -9.368219 -4.454605 -5.907797 3.409703 -34.816432 4.066506 -2.237700 -52.146592 44.630942 58.579404 0.000000 0.000000 0.000000 
